<?xml version="1.0" encoding="utf-8"?>
<!-- Generator: Adobe Illustrator 28.0.0, SVG Export Plug-In . SVG Version: 6.00 Build 0)  -->
<svg version="1.1" id="Слой_1" xmlns="http://www.w3.org/2000/svg" xmlns:xlink="http://www.w3.org/1999/xlink" x="0px" y="0px"
	 viewBox="0 0 40 40" style="enable-background:new 0 0 40 40;" xml:space="preserve">
<style type="text/css">
	.st0{fill:#001A9F;}
</style>
<g id="Республика_Башкортостан">
	<path class="st0" d="M15.8,38.8c-0.1,0-0.2,0-0.2,0C15.6,38.8,15.7,38.8,15.8,38.8z"/>
	<path class="st0" d="M24.4,38.8L24.4,38.8c-0.1,0-0.2,0-0.2,0C24.3,38.8,24.4,38.8,24.4,38.8z"/>
	<path class="st0" d="M25.6,25.9L25.6,25.9L25.6,25.9L25.6,25.9z"/>
	<path class="st0" d="M38.3,16.3l-0.5-0.6l0.3-0.7c0.5-1.3,0-2.8-1.3-3.6l-0.7-0.4v-0.8c0-1.4-1-2.6-2.5-3l-0.8-0.2l-0.3-0.7
		C32,4.9,30.6,4,29,4h-0.9l-0.5-0.6c-0.9-1.1-2.6-1.6-4-1.2l-0.8,0.2L22.1,2c-1.3-0.8-3-0.8-4.2,0l-0.7,0.4l-0.8-0.2
		c-1.5-0.4-3.1,0-4,1.2L11.8,4H11C9.4,4,8,4.9,7.5,6.2L7.2,6.9L6.4,7.1c-1.5,0.4-2.5,1.6-2.5,3v0.8l-0.7,0.4
		c-1.3,0.8-1.8,2.3-1.3,3.6l0.3,0.7l-0.5,0.6c-0.9,1.1-0.9,2.6,0,3.7l0.5,0.6l-0.3,0.7c-0.5,1.3,0,2.8,1.3,3.6l0.7,0.4v0.8
		c0,1.4,1,2.6,2.5,3l0.8,0.2l0.3,0.7c0.5,1.3,1.9,2.2,3.4,2.2h0.9l0.5,0.6c0.1,0.2,0.3,0.3,0.6,0.3c0.4,0,0.7-0.3,0.7-0.6
		c0-0.1,0-0.3-0.1-0.4l-0.3-0.4c0.1-0.9,0.1-1.8,0-2.6l0.8-0.7c0.2,0.1,0.3,0.1,0.5,0.2L14,29.1c-0.2,0.3-0.2,0.7,0.1,0.9
		c0,0,0.1,0.1,0.1,0.1c0.7,0.3,1.4,0.6,2,1c-1.1,0.8-1.9,1.9-2.3,3.1c-2.1-1-4.4-1.8-6.7-2.4L6.9,33c1.8,0.4,3.6,1,5.2,1.7
		c-1.2,0.2-2.4,0.4-3.5,0.7L9,36.6c1.6-0.4,3.2-0.7,4.9-0.9c0.1,0.7,0.2,1.3,0.6,1.9c-1,0.1-2,0.3-2.9,0.5l0.3,1.2
		c1.2-0.3,2.4-0.5,3.7-0.6l0,0c0.1,0,0.2,0,0.2,0l0,0c2.8-0.3,5.6-0.3,8.4,0l0,0c0.1,0,0.2,0,0.2,0l0,0c1.2,0.1,2.5,0.3,3.7,0.6
		l0.3-1.2c-1-0.2-1.9-0.4-2.9-0.5c0.3-0.6,0.5-1.2,0.6-1.9c1.6,0.2,3.3,0.5,4.9,0.9l0.4-1.2c-1.2-0.3-2.3-0.5-3.5-0.7
		c1.7-0.7,3.4-1.3,5.2-1.7l-0.4-1.2c-2.3,0.6-4.6,1.4-6.7,2.4c-0.6-2.5-3.1-4.2-6-4.2c-0.8,0-1.6,0.1-2.3,0.4
		c-0.6-0.4-1.3-0.8-2-1.1l0.4-0.4l0,0l0.2-0.2c0.4-0.4,0.7-0.9,0.8-1.4c0.2,0,0.4,0,0.6,0c0.9,0,1.8-0.1,2.7-0.2
		c0.1,0.2,0.1,0.4,0.1,0.7c0,0.3,0.3,0.6,0.7,0.6h0.1c0.4,0,0.7-0.3,0.6-0.7c0,0,0,0,0,0c0-0.3-0.1-0.6-0.1-0.8l0.1,0
		c0.1,0.3,0.1,0.6,0.2,1c0.1,0.3,0.4,0.5,0.7,0.5c0,0,0.1,0,0.1,0c0.4-0.1,0.7-0.4,0.6-0.7c0,0,0,0,0,0c0-0.3-0.1-0.6-0.2-0.9
		c0.8,1,1.7,2,2.6,2.9c0.5,0.5,1,1.1,1.5,1.7l-0.8,0.9c-0.2,0.3-0.1,0.7,0.2,0.9c0.3,0.2,0.7,0.1,1-0.1l0.5-0.6H29
		c1.6,0,3-0.9,3.4-2.2l0.3-0.7l0.8-0.2c1.5-0.4,2.5-1.6,2.5-3v-0.8l0.7-0.4c1.3-0.8,1.8-2.3,1.3-3.6l-0.3-0.7l0.5-0.6
		C39.2,18.9,39.2,17.4,38.3,16.3z M20,31.2c2.6,0,4.7,1.9,4.7,4.2c0,0.7-0.2,1.5-0.7,2.1c-1.3-0.1-2.7-0.2-4-0.2
		c-1.4,0-2.8,0.1-4.1,0.2c-0.4-0.6-0.7-1.4-0.7-2.1C15.3,33.1,17.4,31.2,20,31.2z M20.6,25.8L20.6,25.8c-1.1,0.2-2.3,0.3-3.5,0.3
		c0-0.6-0.1-1.2-0.3-1.8c-0.1-0.3-0.5-0.5-0.9-0.4c-0.4,0.1-0.6,0.4-0.5,0.8c0.4,1.2,0.3,2.2-0.1,2.9c-2.2-0.5-3-1.6-3-2.4
		c0-1,1.1-1.8,2.9-2.1c0.2,0,0.4,0,0.6-0.1c0.4,0,0.8-0.1,1.2-0.1c0.3,0.2,0.6,0.4,1,0.5l0.2,0.1c1.1,0.4,2.2,0.7,3.1,2
		C21.2,25.6,20.9,25.7,20.6,25.8z M16,18.1c0.4,0.2,0.8,0.7,1.2,1.3c0.2,0.2,0.3,0.5,0.5,0.7c-0.4,0.1-0.8,0.2-1.2,0.2
		c-0.3-0.5-0.7-1-0.9-1.5c-0.2-0.5-0.8-0.9-1.4-1.3c-0.2-0.1-0.4-0.3-0.6-0.4C14.3,17.4,15.2,17.7,16,18.1z M14.5,16.1l0.2-0.1
		c0.1,0.1,0.1,0.2,0.2,0.2L14.5,16.1z M16,15.5l0.1,0C16.1,15.5,16.1,15.5,16,15.5L16,15.5C16.1,15.5,16.1,15.5,16,15.5L16,15.5z
		 M18.6,21.2L18.6,21.2c0.5,0.5,0.9,1,1.3,1.5c-0.4-0.2-0.7-0.3-1.1-0.4l-0.2-0.1c-0.4-0.2-0.8-0.4-1.1-0.7
		C17.8,21.5,18.2,21.4,18.6,21.2L18.6,21.2z M23.4,24l0.4,0.5c-0.3,0.2-0.7,0.4-1,0.5c0,0,0,0,0,0c-0.4-1-0.9-2-1.6-2.9
		c0.1-0.1,0.1-0.2,0.2-0.3c0.3-0.9,0.8-1.7,1.5-2.4l0,0c0,0,0.1-0.1,0.1-0.1l0,0c0.4-0.3,0.8-0.7,1.2-0.9l0.1-0.1l0,0
		c0.4-0.2,0.9-0.4,1.4-0.6c0,0,0.1,0,0.1,0l0.2,0c1.2-0.3,2.5,0,3.3,0.8c-0.1,1-0.3,1.8-0.9,2.5c0.1-0.4,0.2-0.9,0.1-1.4l-0.1-0.4
		l-0.5-0.1c-0.6-0.2-1.2-0.1-1.7,0.2c-1.1,0.7-1.3,2.2-1.5,3.8c0,0.1-0.1,0.3-0.1,0.4l-0.1-0.2c-0.2-0.3-0.6-0.4-1-0.2
		C23.4,23.3,23.2,23.7,23.4,24L23.4,24z M37.1,19.3l-0.9,1.1l0.5,1.3c0.3,0.8,0,1.7-0.8,2.2l-1.3,0.8v1.4c0,0.8-0.6,1.6-1.5,1.8
		l-1.5,0.4l-0.5,1.3c-0.3,0.8-1.1,1.3-2.1,1.3h-0.2c-0.3-0.7-1-1.4-1.9-2.3c-0.9-0.9-1.8-1.9-2.6-2.9c0.1,0,0.1-0.1,0.2-0.1l0,0
		c0.2,0.3,0.6,0.4,1,0.2c0,0,0,0,0.1,0l0,0c0.9-0.5,1.7-1,2.7-1.4c0.2,0.6,0.3,1.3,0.4,1.9l1.4-0.1c-0.1-1-0.4-1.9-0.7-2.9
		c-0.1-0.3-0.5-0.5-0.9-0.4c0,0-0.1,0-0.1,0c-0.8,0.3-1.5,0.7-2.3,1.1c0.1-0.3,0.2-0.5,0.2-0.8c0-0.6,0.2-2.4,0.9-2.8
		c0,0.2-0.1,0.5-0.2,0.7c-0.3,0.5-0.1,1.1,0.4,1.4c0.5,0.3,1.3,0.3,1.7-0.1c1.1-1,1.7-2.4,1.7-4.1v-0.2l-0.2-0.2
		c-1.1-1.1-2.8-1.7-4.5-1.4c0-0.1-0.1-0.2-0.2-0.3c-0.2-0.3-0.6-0.4-1-0.2c-0.3,0.2-0.5,0.6-0.3,0.9c-0.2,0.1-0.3,0.1-0.5,0.2
		c0-0.1-0.1-0.1-0.2-0.2c-0.2-0.3-0.7-0.3-1-0.1c-0.3,0.2-0.4,0.6-0.1,0.9c0,0,0,0.1,0.1,0.1c-0.2,0.1-0.3,0.2-0.5,0.3
		c-0.1-0.1-0.1-0.1-0.2-0.2c-0.3-0.2-0.7-0.3-1,0s-0.3,0.6,0,0.9c0,0,0,0,0,0c0.1,0.1,0.1,0.1,0.2,0.2c-0.6,0.6-1,1.3-1.4,2.1
		c-0.2-0.2-0.4-0.4-0.6-0.6c-0.1-0.1-0.2-0.2-0.3-0.3c-0.1-0.1-0.2-0.3-0.3-0.4c0.1,0,0.2,0,0.3,0c0.2,0.3,0.6,0.5,0.9,0.3
		c0.3-0.1,0.5-0.5,0.4-0.8c-0.3-0.7-1-0.8-1.6-0.9c-0.3,0-0.6-0.1-0.9-0.1c0,0,0,0-0.1,0c-0.4-0.5-0.8-1-1.4-1.3
		c-0.1,0-0.1-0.1-0.2-0.1c0.1,0,0.2,0,0.3,0c0.2,0,0.3-0.1,0.4-0.2c0.3-0.4,0.5-1,0.5-1.7c0.1,0,0.3-0.1,0.4-0.1
		c0.4-0.1,0.6-0.4,0.6-0.7c-0.1-0.3-0.5-0.6-0.8-0.5c0,0,0,0-0.1,0l-0.2,0c0-0.2-0.1-0.4-0.1-0.6c0-0.2-0.2-0.4-0.4-0.4
		c-0.2-0.1-0.4-0.1-0.6,0c-1,0.5-1.8,1.3-2.2,2.2c-0.5,0.2-1,0.5-1.4,0.7c-0.2,0-0.5-0.1-0.8-0.1c-0.1-0.4-0.2-0.8-0.2-1.2
		c-0.2-1.2-0.4-2.4-1.2-3.5c-0.2-0.3-0.6-0.4-1-0.2c-0.3,0.2-0.5,0.6-0.3,0.9c0.6,0.9,0.8,1.9,1,3.1c0.1,0.5,0.2,1.1,0.4,1.7
		c0,0,0,0,0,0c0,0,0,0,0,0.1c0,0,0,0,0,0.1c0,0,0.1,0.1,0.1,0.1c0.1,0.1,0.2,0.2,0.2,0.3c-0.7,0.5-1.3,1.1-1.8,1.7
		c-0.2,0.3-0.2,0.7,0.1,0.9s0.8,0.2,1-0.1c0.5-0.5,1-1.1,1.6-1.5c0.4,0.3,0.9,0.6,1.2,0.9c0.4,0.3,0.9,0.6,1,0.8
		c0.2,0.3,0.4,0.8,0.7,1.2c-0.3,0.2-0.3,0.6-0.1,0.9c0.1,0.1,0.3,0.2,0.5,0.2h0.1c0.1,0,0.1,0,0.2,0l0.1,0.1h-0.1
		c-0.3,0-0.5,0-0.8,0.1c-1.7,0.3-3,1-3.6,2C10,23.4,9.3,23.7,8.8,24c-0.8,0.7-0.8,2,0,3.4l1.3-0.6c-0.5-0.9-0.5-1.7-0.3-1.9
		c0.1-0.1,0.5-0.1,1.1,0.2c0,0,0,0.1,0,0.1c0,0.8,0.5,1.9,1.7,2.6l-0.8,0.7c-0.2,0.1-0.2,0.3-0.2,0.5c0.1,0.7,0.2,1.3,0.1,2H11
		c-1,0-1.8-0.5-2.1-1.3l-0.5-1.3L6.9,28c-0.9-0.3-1.5-1-1.5-1.8v-1.4l-1.3-0.8c-0.8-0.5-1.1-1.4-0.8-2.2l0.5-1.3l-0.9-1.1
		c-0.6-0.7-0.6-1.6,0-2.3l0.9-1.1l-0.5-1.3c-0.3-0.8,0-1.7,0.8-2.2l1.3-0.8v-1.4c0-0.8,0.6-1.6,1.5-1.8l1.5-0.4l0.5-1.3
		C9.2,5.8,10,5.2,11,5.2h1.6l0.9-1.1c0.6-0.7,1.5-1,2.4-0.7l1.5,0.4L18.7,3c0.8-0.5,1.8-0.5,2.6,0l1.3,0.8l1.5-0.4
		c0.9-0.3,1.9,0,2.4,0.7l0.9,1.1H29c1,0,1.8,0.5,2.1,1.3l0.5,1.3l1.5,0.4c0.9,0.3,1.5,1,1.5,1.8v1.4l1.3,0.8
		c0.8,0.5,1.1,1.4,0.8,2.2l-0.5,1.3l0.9,1.1C37.7,17.7,37.7,18.6,37.1,19.3L37.1,19.3z"/>
	<path class="st0" d="M11.9,21.2c-0.4,0-0.7-0.3-0.7-0.6c0-0.1,0-0.2,0.1-0.4c0.4-0.5,0.8-1,1.3-1.4c0.3-0.2,0.7-0.2,1,0
		c0.3,0.2,0.3,0.6,0,0.9c-0.4,0.4-0.8,0.8-1.1,1.2C12.4,21.1,12.1,21.2,11.9,21.2z"/>
	<path class="st0" d="M24.2,35.2c0,0.3-0.3,0.6-0.7,0.6h-2.8v0.9h-1.4v-0.9h-2.8c-0.4,0-0.7-0.3-0.7-0.6c0-0.3,0.3-0.6,0.7-0.6h0.8
		l-0.7-0.4c-0.3-0.2-0.5-0.6-0.3-0.9c0.2-0.3,0.6-0.4,1-0.2l0.7,0.4l-0.4-0.6c-0.2-0.3-0.1-0.7,0.3-0.9c0.3-0.2,0.8-0.1,1,0.2
		l0.4,0.6v-0.7c0-0.3,0.3-0.6,0.7-0.6c0.4,0,0.7,0.3,0.7,0.6v0.7l0.4-0.6c0.2-0.3,0.6-0.4,1-0.2c0.3,0.2,0.5,0.6,0.3,0.9l-0.4,0.6
		l0.7-0.4c0.3-0.2,0.8-0.1,1,0.2c0.2,0.3,0.1,0.7-0.3,0.9l-0.7,0.4h0.8C23.9,34.6,24.2,34.9,24.2,35.2z"/>
</g>
</svg>
